<svg width="240" height="2112" viewBox="0 0 240 2112" fill="none" xmlns="http://www.w3.org/2000/svg">
<path d="M0.62207 1922.33C38.2762 1944.87 120.295 1993.15 147.134 2005.86C173.973 2018.57 218.054 2065.48 236.739 2087.34V2111.94C221.451 2114.51 152.23 2028.92 147.134 2025.33C143.057 2022.46 47.7605 1967.42 0.62207 1940.26V1922.33ZM0.62207 1966.4C22.5634 1978.7 69.4188 2009.75 81.3096 2035.58C96.173 2067.87 124.201 2054.03 171.34 2084.78C209.05 2109.38 210.268 2110.75 206.163 2108.36C202.766 2108.36 170.49 2094.01 157.325 2095.03C144.16 2096.06 117.406 2098.62 96.1729 2105.28C79.1856 2110.61 25.3943 2111.94 0.62207 2111.94V2105.28C25.5359 2106.65 79.5254 2106.51 96.1729 2095.03C116.982 2080.68 49.4592 2082.22 31.623 2072.48C17.3542 2064.69 5.01031 2055.57 0.62207 2051.98V1966.4ZM0.62207 1834.18C23.5543 1835.72 74.1749 1842.79 93.2002 1858.78C88.6703 1863.56 80.7154 1875.79 85.1318 1886.45C89.5484 1897.11 122.927 1913.1 139.064 1919.76C122.644 1916.69 90.143 1912.9 91.502 1922.33C92.8613 1931.75 135.95 1943.68 157.325 1948.46L236.739 1958.71V1989.97C185.92 1975.96 78.5914 1943.54 55.8291 1925.91C33.067 1908.28 9.54024 1880.64 0.62207 1869.03V1834.18ZM0.62207 1884.4C11.9466 1897.21 39.4368 1925.4 58.8018 1935.65C78.1665 1945.9 109.903 1960.42 123.352 1966.4C103.392 1961.1 58.2921 1947.03 37.5684 1933.09C16.8446 1919.15 4.30253 1908.49 0.62207 1904.9V1884.4ZM152.229 1935.65C147.135 1929.5 204.465 1935.65 236.739 1935.65V1948.46C212.958 1949.49 162.761 1948.36 152.229 1935.65ZM236.739 1438.54C229.803 1447.59 215.505 1470.32 213.807 1488.76C212.108 1507.21 228.387 1514.9 236.739 1516.44V1788.05C236.739 1793.38 220.319 1800.18 212.108 1802.92L236.739 1800.35C236.738 1802.41 230.282 1812.86 204.464 1838.28C172.189 1870.05 116.983 1858.78 116.982 1886.45C116.982 1899.7 143.34 1907.31 171.34 1911.64C155.754 1907 124.762 1895.06 125.476 1884.4C126.367 1871.08 178.984 1858.78 163.271 1869.03C150.701 1877.23 147.275 1887.48 147.134 1891.58C145.435 1891.58 169.641 1908.13 171.34 1911.64C201.847 1916.36 234.303 1917.2 236.739 1917.2C240.476 1917.2 238.296 1925.06 236.739 1928.99C187.902 1928.99 146.284 1913.1 130.996 1907.46C115.708 1901.83 104.667 1887.99 104.667 1878.76C104.667 1869.54 120.38 1864.41 140.764 1858.78C161.148 1853.14 230.368 1814.7 209.561 1820.85C188.752 1827 147.983 1831.1 116.982 1838.28C92.1817 1844.02 29.075 1824.95 0.62207 1814.7V1772.68C6.99212 1779.85 24.4042 1790.62 33.3223 1795.23C42.2406 1799.84 65.5967 1800.35 71.9668 1800.35C77.0628 1800.35 74.0901 1798.3 71.9668 1797.28C65.0305 1793.86 48.0155 1785.9 35.4453 1781.39C22.8751 1776.88 6.99221 1762.09 0.62207 1755.26V1716.36C1.61551 1722.5 3.95206 1730.59 8.69141 1740.39C20.5823 1764.99 56.2545 1772.17 79.6113 1776.27C102.968 1780.37 111.037 1774.73 140.764 1776.27C164.545 1777.5 158.316 1790.79 152.229 1797.28C173.321 1786.52 214.317 1758.54 209.561 1732.71C203.615 1700.42 110.188 1684.02 107.64 1669.67C105.092 1655.32 131.846 1659.42 140.764 1641.48C149.465 1623.98 152.102 1620.14 163.666 1603.3L164.545 1602.02C176.86 1584.09 164.545 1565.64 152.229 1547.7C139.914 1529.76 153.504 1501.06 159.024 1478.51C164.545 1455.97 145.86 1419.07 178.135 1409.33C203.954 1401.54 228.811 1381.83 238.013 1372.94L236.739 1438.54ZM236.739 1907.46C217.346 1910.71 177.966 1912.69 175.587 1894.65C173.209 1876.61 215.364 1852.63 236.739 1842.89V1907.46ZM236.739 1838.28C214.515 1850.07 170.323 1874.66 171.34 1878.76C172.614 1883.89 158.175 1879.28 175.587 1869.03C189.516 1860.83 222.159 1840.33 236.739 1831.1V1838.28ZM0.62207 1338.61C7.27523 1384.22 18.4103 1484.74 16.7598 1522.59C14.6364 1571.27 9.11602 1683 23.9795 1697.34C38.843 1711.69 71.9668 1725.53 71.9668 1740.39C71.9666 1752.28 46.204 1748.76 33.3223 1745.52C20.3916 1738.17 -3.48711 1716.31 4.44434 1687.61C4.05298 1665.06 6.69795 1615.47 8.69141 1594.85C11.6641 1564.1 12.938 1452.89 8.69141 1438.54C5.29405 1427.06 1.89608 1398.23 0.62207 1385.24V1338.61ZM0.62207 1107.99C8.8324 1115.68 30.3492 1134.54 50.7334 1148.48C76.2135 1165.9 107.215 1161.8 154.777 1198.7C192.828 1228.22 209.985 1277.96 213.807 1299.15C223.999 1337.58 207.437 1342.71 203.615 1350.91C199.793 1359.11 153.503 1368.33 145.859 1368.33C138.215 1368.33 116.558 1398.05 104.667 1419.07C95.1544 1435.88 102.968 1462.63 97.8721 1488.76C86.406 1515.93 73.6653 1533.35 56.2539 1533.35C32.3439 1533.35 25.2535 1402.67 23.9795 1385.24C22.9601 1371.3 7.98297 1312.13 0.62207 1284.28V1199.72C0.62207 1197.84 3.84988 1202.08 16.7598 1234.06C29.6698 1266.04 46.7698 1290.78 53.7061 1299.15C57.6697 1302.05 65.8517 1304.37 66.8711 1290.43C67.8903 1276.49 23.1296 1206.73 0.62207 1173.59V1160.77C7.27495 1168.97 20.8352 1184.96 21.8555 1183.32C22.8747 1181.68 8.12458 1160.43 0.62207 1150.01V1131.05C6.56746 1138.4 21.4315 1155.55 33.3223 1165.39C48.1864 1177.69 101.694 1222.79 112.735 1230.47C123.777 1238.16 138.64 1274.03 139.064 1290.43C139.404 1303.55 121.653 1307.52 112.735 1307.86C97.0225 1322.72 108.687 1343.73 92.3506 1357.06C51.9365 1390.02 22.705 1267.88 31.1982 1307.86C39.6917 1347.83 51.5828 1362.69 75.7891 1368.33C99.9949 1373.97 95.7487 1348.34 121.653 1332.97C147.558 1317.6 159.024 1338.09 164.545 1324.77C170.066 1311.44 174.313 1309.39 178.135 1304.78C181.956 1300.17 180.257 1276.59 164.545 1243.8C148.832 1211 102.543 1182.3 75.7891 1173.59C54.3857 1166.62 16.7596 1133.1 0.62207 1117.21V1107.99ZM0.62207 1093.64C11.6635 1105.94 39.0976 1132.79 60.501 1141.81C87.2551 1153.09 99.5703 1157.19 147.982 1165.39C186.712 1171.95 224.423 1220.39 238.438 1243.8V1276.6C223.857 1247.04 185.353 1185.68 147.982 1176.66C110.611 1167.64 66.4456 1149.67 49.0342 1141.81C37.8509 1133.95 12.5127 1114.75 0.62207 1100.81V1093.64ZM238.862 1022.92C238.862 1064.09 238.777 1147.76 238.438 1153.09C238.012 1159.75 225.698 1173.59 215.931 1173.59C203.615 1173.59 200.588 1165.72 181.957 1160.77C160.723 1155.14 143.312 1157.7 121.653 1150.01C139.631 1145.91 176.728 1132.48 185.778 1114.65C206.587 1073.65 224.565 1045.81 238.862 1022.92ZM1.47168 999.383C1.92117 1002.27 3.01695 1007.2 5.29395 1015.23C10.8146 1034.7 21.0063 1055.72 43.5137 1080.83C61.5196 1100.92 92.3507 1107.31 105.516 1107.99C113.16 1107.48 119.7 1108.6 133.969 1102.86C155.627 1093.64 180.258 1071.6 193.423 1058.28C203.955 1047.62 227.821 1016.94 238.438 1002.93V1008.05C233.766 1014.2 222.725 1028.76 215.931 1037.78C207.437 1049.05 196.396 1061.35 178.135 1077.75C159.874 1094.15 143.312 1104.4 129.298 1109.53C118.087 1113.63 100.278 1111.75 92.3506 1111.06C72.8163 1107.48 58.8026 1099.28 52.0078 1093.64C36.8143 1081.03 27.8009 1067.5 18.8828 1055.2C11.7484 1045.36 4.3028 1025.82 1.47168 1017.28V999.383ZM101.693 798.449C107.214 796.912 107.639 794.35 123.352 815.874C139.064 837.398 140.764 891.721 137.791 910.683C134.818 929.645 136.942 932.72 119.105 963.981C109.904 973.548 89.7188 993.704 82.584 997.805C73.6659 1002.93 70.6927 1021.38 74.9395 1028.04C79.1862 1034.7 86.4062 1044.44 98.2969 1048.03C110.188 1051.62 137.367 1053.67 159.449 1040.85C177.115 1030.6 201.633 1008.57 211.684 998.83L238.438 964.494V970.131C209.56 1016.25 137.791 1083.9 82.1592 1044.44C72.8165 1037.27 57.1625 1020.56 71.1172 1001.39C83.4326 984.481 84.2826 994.218 106.79 971.669C112.735 966.202 125.815 950.656 130.571 932.207C136.517 909.145 136.942 876.859 134.818 866.097C132.695 855.334 129.827 821.511 108.488 814.336C97.8718 810.767 97.0221 847.135 98.7207 866.097C100.97 891.208 106.365 910.683 94.0498 935.282C86.4057 946.557 75.7885 958.857 49.459 954.244C38.8421 950.657 16.4203 945.327 11.6641 952.707C7.55893 956.294 0.962121 969.926 7.41699 995.755C13.872 1021.58 24.5454 1045.12 29.0752 1053.67C35.3038 1062.21 50.8184 1081.03 63.0488 1088C78.337 1096.71 97.4473 1102.35 116.133 1100.81C131.081 1099.58 165.819 1076.96 180.258 1062.89C187.619 1055.72 204.294 1038.91 212.108 1029.07C219.922 1019.23 232.917 1000.37 238.438 992.168V997.293C233.624 1004.81 222.386 1021.69 215.931 1029.07C207.862 1038.29 196.396 1052.64 190.45 1058.28C184.505 1063.92 158.6 1085.44 152.654 1089.03C146.709 1092.61 125.475 1106.45 105.516 1105.43C85.5562 1104.4 62.6236 1095.18 49.0342 1080.83C35.445 1066.48 28.6501 1062.38 18.8828 1039.83C9.11555 1017.28 2.32121 993.194 1.47168 983.456C0.622344 973.719 1.47171 951.682 7.41699 947.582C13.3624 943.482 13.3624 940.407 34.5957 943.994C55.8292 947.582 63.0493 952.707 73.666 947.582C84.2827 942.457 97.0224 938.357 97.0225 897.871C97.0225 857.385 92.7754 855.847 92.7754 837.397C92.7754 818.949 96.1729 799.988 101.693 798.449ZM204.889 685.703C218.903 686.728 215.93 703.127 222.3 704.665C227.396 705.895 235.748 713.718 239.287 717.477L238.438 871.222L234.2 874.989C233.002 875.8 231.591 876.759 229.944 877.884C211.938 890.183 207.437 905.558 207.437 911.708C206.163 916.833 205.993 930.26 215.506 942.97C225.018 955.679 231.643 947.07 236.314 956.807C226.122 979.766 193.281 1011.81 178.135 1024.97C157.411 1044.24 125.334 1045.98 111.886 1044.44C95.3237 1043.93 90.2276 1032.65 84.2822 1024.97C78.3368 1017.28 86.8307 997.293 101.27 987.556C115.708 977.818 124.626 963.981 129.722 951.169C134.818 938.357 142.037 909.146 142.462 880.959C142.802 858.41 135.526 830.223 131.846 818.948C125.193 804.428 109.083 776.003 97.8721 778.462C83.8579 781.537 86.4054 837.398 86.8301 844.061C87.255 850.724 93.2 889.159 92.7754 906.583C92.3507 924.007 86.4056 932.208 74.9395 940.92C63.4733 949.632 46.0616 943.995 37.1436 940.92C28.2255 937.845 20.1567 937.332 9.54004 937.332C3.34434 937.332 1.14091 942.241 0.62207 946.688V951.169C0.468923 949.921 0.429687 948.336 0.62207 946.688V927.082C32.4724 920.932 48.1857 943.482 67.2959 929.645C72.8166 926.398 81.3941 910.682 71.542 873.784C59.2265 827.661 57.1038 844.572 67.2959 768.725C75.4494 708.048 87.6792 696.978 92.7754 699.027C105.091 701.59 104.87 746.688 116.133 762.062C142.038 797.424 145.435 859.947 146.284 877.884C147.134 895.821 143.311 920.932 136.517 946.557C131.081 967.056 116.699 984.48 110.188 990.63C94.05 999.855 88.5294 1022.08 101.27 1028.04C141.421 1046.83 172.218 1022.85 184.507 1004.87C183.127 1004.8 180.441 1002.56 175.587 995.243C165.395 979.869 180.257 896.334 181.956 880.959C183.315 868.659 185.071 786.321 185.778 746.688C187.477 726.018 193.677 684.883 204.889 685.703ZM156.901 0C154.353 7.51632 148.918 23.1638 147.559 25.624C145.86 28.6989 137.792 55.3475 136.093 60.9854C134.734 65.4952 131.28 85.0721 129.723 94.2969L106.79 148.62C99.7123 165.703 84.4529 202.225 80.0361 211.655C74.5155 223.442 63.4743 226.518 58.8027 224.98C54.1314 223.443 44.788 212.68 38.418 211.655C32.0484 210.631 32.0483 217.805 28.2266 221.905C24.4045 226.005 18.8832 263.929 13.7871 291.091C8.69115 318.252 12.9384 323.889 18.8838 335.164C24.8292 346.439 47.7608 355.151 66.0215 354.639C80.6301 354.229 115.708 368.818 131.421 376.163C139.914 381.288 161.148 389.999 178.135 383.85C199.368 376.162 188.752 347.463 207.013 339.264C215.934 335.259 230.652 369.671 239.287 391.537V524.271C227.396 524.783 190.875 508.384 181.107 503.259C171.34 498.134 146.285 482.76 123.353 466.36C100.42 449.961 81.7347 443.298 67.2959 441.248C52.8571 439.198 47.7607 440.735 32.0479 443.298C16.3353 445.86 8.69156 452.011 6.14355 456.623C3.59655 461.235 40.1177 460.722 65.5977 462.26C91.0777 463.797 116.133 478.659 130.147 490.446C141.359 499.876 207.578 535.374 239.287 551.944V578.594C229.661 573.81 203.7 560.349 176.861 544.77C150.023 529.19 128.307 527.687 120.805 528.883C116.7 529.737 104.667 536.058 89.3789 554.507C70.2687 577.569 63.0494 621.13 61.7754 638.042C60.5014 654.954 61.7754 712.865 61.7754 725.677C61.7753 738.489 53.7059 773.85 50.3086 783.587C46.9112 793.324 42.6655 818.436 46.9121 839.96C51.1588 861.484 58.8029 888.646 59.2275 897.358C59.6522 906.071 55.4051 911.708 45.6377 917.346C35.8705 922.983 20.1581 910.684 12.9385 907.608C7.16296 905.148 2.88725 906.583 1.47168 907.608V822.023C9.54042 814.336 23.1299 784.1 20.1572 789.225C17.7787 793.325 6.70917 802.549 1.47168 806.648V780C-0.0851618 781.708 0.0293174 780.409 12.9385 761.551C25.8485 742.691 27.3767 709.96 26.5273 695.952C26.9519 669.303 12.5134 652.391 11.6641 634.454C10.8148 616.517 14.212 609.343 17.6094 599.605C21.0067 589.868 24.404 582.181 29.5 570.906C33.5769 561.887 53.2812 531.616 62.624 517.608C57.9524 521.367 46.6565 532.47 38.8428 546.819C29.0753 564.756 18.8833 573.982 14.2119 577.057C10.4748 579.517 4.44445 586.964 1.89648 590.381V546.819C3.87829 546.136 9.11592 544.36 14.2119 542.72C20.5819 540.67 26.1026 532.47 32.0479 524.783C37.9932 517.096 53.7064 494.547 72.8164 487.372C88.1046 481.632 117.407 491.813 130.147 497.621C115.992 486.005 76.6385 468.403 57.5283 478.147C33.4071 490.447 10.3899 492.497 1.89648 491.984V421.773C25.678 416.307 78.4226 409.884 99.1465 427.924C119.87 445.963 160.44 464.48 178.135 471.484C187.478 474.047 201.067 472.509 203.615 468.922C206.163 465.335 206.588 461.235 203.615 454.061C200.643 446.886 189.176 442.785 170.915 431.511C156.306 422.491 116.983 394.271 99.1465 381.288C84.4246 375.822 50.7339 364.478 33.7471 362.838C16.7605 361.198 5.71882 347.464 2.32129 340.802V300.315L7.41699 263.929L17.6094 221.905C22.2806 199.869 30.3298 192.182 35.0205 192.182C41.8152 192.182 54.9802 216.268 66.4463 215.243C77.9122 214.218 89.3785 175.783 91.9268 170.657C94.4748 165.532 114.859 118.896 117.407 112.746C119.955 106.596 125.901 83.5347 127.175 73.2852C128.194 65.0854 132.412 51.7604 134.394 46.123C136.8 38.4356 142.463 21.3193 145.86 14.3496C149.258 7.37989 150.673 1.8791 150.956 0H156.901ZM150.956 585.769C183.231 561.99 223.291 599.093 239.287 620.617V691.34C208.032 640.092 190.875 641.287 186.203 648.291C169.896 655.261 168.65 740.026 170.065 781.537C169.216 802.036 166.923 840.165 164.545 828.686C162.167 817.206 146.85 753.522 139.489 723.114C129.863 687.24 118.681 609.548 150.956 585.769ZM1.89648 507.871C6.42646 508.213 17.1849 509.408 23.9795 511.458C30.7734 513.508 12.0885 521.879 1.89648 525.808V507.871ZM1.89648 355.663C3.17049 360.275 32.4725 372.063 62.624 379.237C92.7756 386.412 122.927 409.987 125.051 416.649C127.173 423.31 97.0224 405.887 82.1592 403.837C67.2958 401.787 13.363 396.662 1.89648 403.837V355.663ZM209.561 0C208.428 2.04993 204.464 8.71225 197.669 18.9619C189.176 31.7741 185.779 63.5481 181.532 80.46C177.286 97.3719 142.037 153.745 127.599 177.832C113.16 201.919 105.941 229.593 88.9541 257.779C71.9673 285.966 63.4735 291.603 60.0762 310.053C56.6794 328.502 105.941 342.852 125.051 340.802C144.161 338.752 154.353 360.276 175.162 288.016C191.809 230.208 224.848 215.072 239.287 214.73V249.579C221.281 244.249 210.268 254.192 207.012 259.829C202.765 265.296 192.234 284.531 184.08 317.739C175.927 350.947 168.226 359.933 165.395 360.275C160.582 363.009 148.153 367.86 136.941 365.4C122.927 362.325 105.516 349.514 67.2959 346.951C36.7198 344.901 25.9605 324.573 24.4033 314.665C25.6773 273.667 32.4724 241.893 43.5137 236.255C49.6976 233.098 66.8704 240.867 77.0625 229.593C87.2546 218.318 104.242 168.607 113.16 148.62C120.295 132.631 133.969 96.5178 139.914 80.46C144.67 44.7911 158.883 11.9579 165.395 0H209.561ZM71.3447 0C70.7785 1.53741 70.3253 4.8176 73.043 5.6377C76.4403 6.66266 93.427 5.125 100.646 21.0117C106.422 33.7211 105.601 55.6892 104.469 65.085C100.647 79.947 92.4084 111.517 90.0303 118.896C87.0575 128.121 77.7145 158.357 78.9883 159.383C80.0075 160.203 86.7744 147.083 90.0303 140.421C92.0121 135.125 96.9094 122.073 100.646 112.233C105.318 99.934 112.113 83.5351 112.113 71.748C112.113 62.3184 116.643 40.8281 118.908 31.2617C121.881 23.9164 128.165 8.50851 129.524 5.6377C130.883 2.76779 130.091 0.683311 129.524 0H144.812C144.388 2.73324 142.604 9.73697 138.867 15.8867C135.13 22.0365 131.082 36.8992 129.524 43.5615C126.127 54.836 119.078 78.7163 118.059 84.0469C117.039 89.3767 108.574 113.6 104.469 125.046L87.0576 166.557C81.9616 178.685 71.4293 203.25 70.0703 204.48C69.221 207.043 66.2489 209.093 63.2764 209.093C53.8951 209.093 47.988 192.693 37.7959 183.469C29.6423 176.089 20.951 188.594 16.9873 195.769C10.1926 210.631 5.01063 239.637 4.6709 240.867C4.33099 242.098 1.41553 261.537 0 271.104V161.433C3.11422 153.404 12.8249 137.653 26.7539 138.883C44.1653 140.42 42.0422 152.208 54.3574 156.82C64.2098 160.51 68.9379 146.399 70.0703 138.883C72.4768 130.171 77.4602 111.004 78.1396 104.034C78.989 95.322 79.8376 66.6227 78.9883 56.373C78.1389 46.1234 70.9198 31.2614 67.5225 32.7988C64.8047 34.0291 64.4082 51.0778 64.5498 59.4482C64.4082 65.2564 62.3413 78.3071 55.207 84.0469C46.2889 91.2216 25.0555 86.0968 18.2607 84.0469C11.4662 81.997 3.39747 78.9223 0 81.4844V67.6475C0.991305 63.8894 8.91852 60.4729 23.7812 65.085C45.1683 71.7217 37.796 38.4363 38.2207 18.9619C38.5604 3.38242 38.2207 2.04993 38.2207 0H71.3447ZM239.287 190.578C238.621 189.238 234.86 188.789 223.149 193.719C208.541 199.869 182.24 227.372 170.915 240.354C165.961 246.163 156.391 251.219 157.75 224.98C159.109 198.741 212.674 119.067 239.287 82.5098V190.578ZM3.16992 110.185C5.71795 107.28 16.7597 105.059 29.0752 106.084C44.1194 107.336 54.9793 119.921 54.9795 125.559C54.9795 131.196 54.9797 132.733 52.4316 132.733C48.5861 132.733 44.3629 123.509 34.5957 121.972C28.5225 121.016 19.4489 126.071 15.4854 128.121C11.5218 130.171 3.16992 142.983 3.16992 142.983V110.185Z" fill="url(#paint0_linear_685_6397)" fill-opacity="0.7"/>
<defs>
<linearGradient id="paint0_linear_685_6397" x1="119.644" y1="0" x2="119.644" y2="2112" gradientUnits="userSpaceOnUse">
<stop stop-color="#00D8F5"/>
<stop offset="0.494792" stop-color="#784EF4"/>
<stop offset="1" stop-color="#AFF500"/>
</linearGradient>
</defs>
</svg>
